#!OML:ASF E:\Style4\Style4.ASF
:FULLY-SPECIFIED
:DEGREES
3460
root -0.578567 16.7913 -2.46082 8.65455 7.88368 3.20111
lowerback 17.2862 3.13167 1.38995
upperback 8.9652 4.31441 -0.752077
thorax 0.0727425 2.24062 -2.2883
lowerneck -0.935035 -5.13134 -5.3833
upperneck -8.60915 -6.47497 7.47271
head -2.15222 -3.27142 3.47047
rclavicle 2.14687e-014 1.51076e-014
rhumerus 42.8891 31.1729 -4.52713
rradius 108.888
rwrist -89.9525
rhand -25.5571 24.1003
rfingers 7.12502
rthumb 0.973526 -5.87722
lclavicle 2.14687e-014 1.51076e-014
lhumerus 39.2668 -26.6982 5.54234
lradius 115.96
lwrist 83.235
lhand -3.55992 26.1568
lfingers 7.12502
lthumb 22.1765 54.9047
rfemur -40.8342 -6.43031 18.056
rtibia 56.015
rfoot -22.6006 -15.0727
rtoes -10.2271
lfemur -41.8144 3.03533 -21.265
ltibia 50.984
lfoot -17.5806 2.60716
ltoes -13.8317
3461
root -0.571064 16.7861 -2.45846 8.68609 7.69408 3.23759
lowerback 17.3029 3.17372 1.26951
upperback 8.92974 4.34997 -0.767504
thorax 0.0197998 2.25312 -2.24552
lowerneck -0.902141 -5.54308 -5.65961
upperneck -8.61577 -7.00467 7.99846
head -2.09573 -3.54331 3.70192
rclavicle 2.46493e-014 5.56597e-015
rhumerus 42.98 31.1297 -4.40128
rradius 108.986
rwrist -89.9766
rhand -25.6986 24.2742
rfingers 7.12502
rthumb 0.836825 -5.70394
lclavicle 2.46493e-014 5.56597e-015
lhumerus 39.3184 -26.6232 5.41679
lradius 115.918
lwrist 83.058
lhand -3.5626 26.1619
lfingers 7.12502
lthumb 22.1739 54.9102
rfemur -40.9109 -6.26325 17.9684
rtibia 56.0473
rfoot -22.5765 -15.026
rtoes -10.3815
lfemur -41.8649 3.23578 -21.3648
ltibia 51.0568
lfoot -17.6265 2.62522
ltoes -13.8137
3462
root -0.563804 16.7857 -2.45563 8.6488 7.49833 3.17987
lowerback 17.3546 3.18701 1.22992
upperback 8.91322 4.36032 -0.766029
thorax -0.0272315 2.25559 -2.22758
lowerneck -0.705112 -5.92993 -5.83749
upperneck -8.82362 -7.50402 8.43969
head -2.14012 -3.80469 3.90131
rclavicle -1.03368e-014 -3.97569e-015
rhumerus 43.1673 31.0423 -4.31555
rradius 109.012
rwrist -90.0411
rhand -26.0053 24.2643
rfingers 7.12502
rthumb 0.540596 -5.71478
lclavicle -1.03368e-014 -3.97569e-015
lhumerus 39.2589 -26.537 5.3052
lradius 115.926
lwrist 82.939
lhand -3.73184 26.0429
lfingers 7.12502
lthumb 22.0115 54.8104
rfemur -40.8907 -6.04069 17.9746
rtibia 56.02
rfoot -22.5027 -15.0596
rtoes -10.4822
lfemur -41.8326 3.46909 -21.3627
ltibia 51.102
lfoot -17.6303 2.64313
ltoes -13.8561
3463
root -0.554699 16.7873 -2.45208 8.60547 7.30365 3.13686
lowerback 17.402 3.20269 1.21395
upperback 8.90233 4.37718 -0.771033
thorax -0.0633603 2.26252 -2.23019
lowerneck -0.524857 -6.3267 -6.01765
upperneck -9.03736 -8.01678 8.86695
head -2.17942 -4.07269 4.09668
rclavicle 3.33958e-014 -2.38542e-014
rhumerus 43.3007 31.0477 -4.27221
rradius 109.031
rwrist -89.948
rhand -26.3059 24.3285
rfingers 7.12502
rthumb 0.2503 -5.65107
lclavicle 3.33958e-014 -2.38542e-014
lhumerus 39.2505 -26.4339 5.16834
lradius 115.938
lwrist 82.7655
lhand -3.94756 25.9685
lfingers 7.12502
lthumb 21.8043 54.7602
rfemur -40.8481 -5.83181 17.9505
rtibia 55.9419
rfoot -22.3645 -15.1426
rtoes -10.8019
lfemur -41.7719 3.69867 -21.3775
ltibia 51.142
lfoot -17.7021 2.61688
ltoes -14.1442
3464
root -0.545459 16.7887 -2.44713 8.61112 7.07282 3.24853
lowerback 17.4004 3.22905 1.02023
upperback 8.88251 4.38073 -0.811982
thorax -0.0952521 2.2579 -2.16627
lowerneck -0.391555 -6.74105 -6.44956
upperneck -9.12187 -8.55012 9.50114
head -2.14208 -4.34782 4.40446
rclavicle 2.38542e-014 -1.90833e-014
rhumerus 43.3708 31.0701 -4.22282
rradius 109.127
rwrist -89.8438
rhand -26.3591 24.5095
rfingers 7.12502
rthumb 0.19892 -5.47014
lclavicle 2.38542e-014 -1.90833e-014
lhumerus 39.2179 -26.3107 5.00899
lradius 115.945
lwrist 82.4744
lhand -3.99471 25.8942
lfingers 7.12502
lthumb 21.759 54.6912
rfemur -40.8676 -5.61085 17.7376
rtibia 55.8796
rfoot -22.194 -15.2242
rtoes -11.2841
lfemur -41.728 3.90565 -21.5675
ltibia 51.1622
lfoot -17.7974 2.69199
ltoes -14.7972
3465
root -0.536727 16.7888 -2.44034 8.60018 6.87275 3.24523
lowerback 17.3567 3.2385 0.914078
upperback 8.88522 4.37638 -0.803771
thorax -0.0789579 2.25175 -2.09477
lowerneck -0.333949 -7.1576 -6.5905
upperneck -9.18331 -9.09241 9.91256
head -2.09882 -4.62947 4.57398
rclavicle 2.94201e-014 -2.38542e-014
rhumerus 43.5493 30.8196 -3.98601
rradius 109.284
rwrist -89.9891
rhand -26.5029 24.5979
rfingers 7.12502
rthumb 0.0600458 -5.3818
lclavicle 2.94201e-014 -2.38542e-014
lhumerus 39.1435 -26.1235 4.8221
lradius 115.993
lwrist 82.2467
lhand -4.01118 25.7898
lfingers 7.12502
lthumb 21.7432 54.5886
rfemur -40.839 -5.43152 17.6857
rtibia 55.865
rfoot -22.2295 -15.1757
rtoes -11.2907
lfemur -41.6953 4.10994 -21.6203
ltibia 51.1962
lfoot -17.8894 2.73083
ltoes -14.6563
3466
root -0.525014 16.7878 -2.43498 8.55878 6.67954 3.21824
lowerback 17.3285 3.20221 0.839084
upperback 8.90696 4.31742 -0.790366
thorax -0.0505879 2.21956 -2.0265
lowerneck -0.349324 -7.5314 -6.68998
upperneck -9.46034 -9.52824 10.6085
head -1.87644 -4.8869 4.3538
rclavicle 9.97899e-014 -4.77083e-014
rhumerus 43.8603 30.8561 -3.88459
rradius 109.291
rwrist -89.7368
rhand -26.8464 24.7458
rfingers 7.12502
rthumb -0.271718 -5.23374
lclavicle 9.97899e-014 -4.77083e-014
lhumerus 38.9437 -25.8903 4.65644
lradius 116.129
lwrist 82.0272
lhand -4.00729 25.7108
lfingers 7.12502
lthumb 21.747 54.5092
rfemur -40.783 -5.31304 17.6769
rtibia 55.9177
rfoot -22.3241 -15.0242
rtoes -11.096
lfemur -41.6255 4.30991 -21.6598
ltibia 51.2327
lfoot -18.0442 2.89318
ltoes -14.8799
3467
root -0.509281 16.7892 -2.42781 8.48967 6.49656 3.22386
lowerback 17.3156 3.14983 0.781881
upperback 8.92843 4.23991 -0.798291
thorax -0.0278618 2.17925 -1.98847
lowerneck -0.268038 -7.90352 -6.67848
upperneck -9.64579 -10.0125 10.835
head -1.88995 -5.14192 4.42229
rclavicle -8.74653e-015 6.36111e-015
rhumerus 44.1581 30.7355 -3.72724
rradius 109.347
rwrist -89.7716
rhand -27.1241 25.0849
rfingers 7.12502
rthumb -0.539948 -4.89417
lclavicle -8.74653e-015 6.36111e-015
lhumerus 38.8333 -25.6433 4.48744
lradius 116.19
lwrist 81.7663
lhand -4.25422 25.6587
lfingers 7.12502
lthumb 21.5098 54.4844
rfemur -40.6915 -5.24191 17.6033
rtibia 55.9725
rfoot -22.4236 -14.8541
rtoes -10.9696
lfemur -41.4978 4.48306 -21.7482
ltibia 51.2636
lfoot -18.1697 3.04456
ltoes -15.4687
3468
root -0.494113 16.7914 -2.41824 8.48177 6.29544 3.27166
lowerback 17.213 3.08999 0.681542
upperback 8.95109 4.14631 -0.825222
thorax 0.0403192 2.13036 -1.93809
lowerneck -0.179131 -8.27202 -6.75849
upperneck -9.84847 -10.489 11.1302
head -1.90009 -5.39305 4.52581
rclavicle 1.98785e-015 -3.18055e-014
rhumerus 44.4859 30.4945 -3.53278
rradius 109.5
rwrist -90.0039
rhand -27.5275 25.223
rfingers 7.12502
rthumb -0.929583 -4.75468
lclavicle 1.98785e-015 -3.18055e-014
lhumerus 38.7621 -25.3675 4.28878
lradius 116.197
lwrist 81.3926
lhand -4.77034 25.5615
lfingers 7.12502
lthumb 21.0141 54.443
rfemur -40.6649 -5.17409 17.4783
rtibia 56.0046
rfoot -22.4021 -14.7787
rtoes -11.3117
lfemur -41.4197 4.6417 -21.8773
ltibia 51.2816
lfoot -18.2221 3.03274
ltoes -15.205
3469
root -0.48214 16.7903 -2.4124 8.52005 6.08617 3.32494
lowerback 17.0522 3.14787 0.0265462
upperback 8.95186 4.13334 -0.43135
thorax 0.045083 2.09097 -1.14875
lowerneck 0.021291 -8.59713 -7.36821
upperneck -10.0203 -10.932 11.3893
head -1.89306 -5.61076 4.7042
rclavicle 3.22031e-014 1.59028e-015
rhumerus 45.0356 30.2783 -2.62877
rradius 109.779
rwrist -90.2304
rhand -27.8887 25.1808
rfingers 7.12502
rthumb -1.27842 -4.79512
lclavicle 3.22031e-014 1.59028e-015
lhumerus 38.3785 -25.1618 4.76653
lradius 116.148
lwrist 81.1705
lhand -4.89393 25.4927
lfingers 7.12502
lthumb 20.8953 54.3873
rfemur -40.7226 -5.04029 17.3522
rtibia 56.0159
rfoot -22.3269 -14.7301
rtoes -11.5152
lfemur -41.4201 4.82196 -22.0092
ltibia 51.2878
lfoot -18.1943 2.97476
ltoes -14.6973
3470
root -0.468045 16.7923 -2.40676 8.5126 5.82254 3.36806
lowerback 17.0238 3.10779 -0.156953
upperback 8.93796 4.05357 -0.426141
thorax 0.0301752 2.04411 -1.02672
lowerneck 0.0921124 -8.87869 -7.5434
upperneck -10.0941 -11.2954 11.7558
head -1.85755 -5.80288 4.83799
rclavicle 8.34896e-015 -1.03368e-014
rhumerus 45.3032 30.0368 -2.40202
rradius 109.977
rwrist -90.3245
rhand -27.9893 25.2727
rfingers 7.12502
rthumb -1.37558 -4.70263
lclavicle 8.34896e-015 -1.03368e-014
lhumerus 38.2087 -24.8977 4.64339
lradius 116.178
lwrist 80.9885
lhand -4.74796 25.4813
lfingers 7.12502
lthumb 21.0356 54.3604
rfemur -40.7245 -4.8505 17.2229
rtibia 55.9862
rfoot -22.3753 -14.5765
rtoes -10.8782
lfemur -41.3468 4.97275 -22.1159
ltibia 51.2804
lfoot -18.2709 3.038
ltoes -14.4855
